<?xml version="1.0" standalone="no"?>
<!DOCTYPE svg PUBLIC "-//W3C//DTD SVG 20010904//EN"
 "http://www.w3.org/TR/2001/REC-SVG-20010904/DTD/svg10.dtd">
<svg version="1.0" xmlns="http://www.w3.org/2000/svg"
 width="700.000000pt" height="700.000000pt" viewBox="0 0 700.000000 700.000000"
 preserveAspectRatio="xMidYMid meet">
<metadata>
Created by potrace 1.11, written by Peter Selinger 2001-2013
</metadata>
<g transform="translate(0.000000,700.000000) scale(0.100000,-0.100000)"
fill="#000000" stroke="none">
<path d="M1200 6985 c-303 -44 -582 -186 -797 -406 -214 -218 -344 -481 -388
-784 -22 -150 -22 -4440 0 -4590 45 -310 183 -584 406 -802 218 -214 481 -344
784 -388 150 -22 4440 -22 4590 0 310 45 584 183 802 406 214 218 344 481 388
784 22 150 22 4440 0 4590 -44 303 -174 566 -388 784 -175 178 -385 303 -628
371 -182 51 -111 50 -2479 49 -1707 -1 -2224 -4 -2290 -14z m1784 -3208 c286
-807 523 -1464 527 -1460 3 5 238 666 520 1470 l514 1463 353 0 352 0 0 -1750
0 -1750 -236 0 -235 0 3 1465 c2 806 0 1455 -5 1443 -4 -13 -236 -671 -515
-1463 l-508 -1440 -250 -3 -249 -2 -520 1464 c-286 806 -521 1464 -522 1462
-1 -1 2 -229 7 -506 5 -278 10 -936 10 -1462 l0 -958 -240 0 -240 0 0 1750 0
1750 357 -2 356 -3 521 -1468z"/>
</g>
</svg>
