<svg version="1" xmlns="http://www.w3.org/2000/svg" width="933.3333" height="933.3333" viewBox="0 0 700 700"><path d="M120 1.5C89.7 5.9 61.8 20.1 40.3 42.1 18.9 63.9 5.9 90.2 1.5 120.5c-2.2 15-2.2 444 0 459 4.5 31 18.3 58.4 40.6 80.2 21.8 21.4 48.1 34.4 78.4 38.8 15 2.2 444 2.2 459 0 31-4.5 58.4-18.3 80.2-40.6 21.4-21.8 34.4-48.1 38.8-78.4 2.2-15 2.2-444 0-459-4.4-30.3-17.4-56.6-38.8-78.4-17.5-17.8-38.5-30.3-62.8-37.1C578.7-.1 585.8 0 349 .1 178.3.2 126.6.5 120 1.5zm178.4 320.8c28.6 80.7 52.3 146.4 52.7 146 .3-.5 23.8-66.6 52-147L454.5 175H525v350h-47.1l.3-146.5c.2-80.6 0-145.5-.5-144.3-.4 1.3-23.6 67.1-51.5 146.3l-50.8 144-25 .3-24.9.2-52-146.4c-28.6-80.6-52.1-146.4-52.2-146.2-.1.1.2 22.9.7 50.6.5 27.8 1 93.6 1 146.2V525h-48V175l35.7.2 35.6.3 52.1 146.8z"/></svg>